<svg xmlns="http://www.w3.org/2000/svg" viewBox="0 0 436.7 448.05"><defs><style>.cls-1{fill:#fffdfd;}</style></defs><title>Asset 1</title><g id="Layer_2" data-name="Layer 2"><g id="Layer_1-2" data-name="Layer 1"><path class="cls-1" d="M407.45,190.5l22.2,22.2a23.9,23.9,0,0,1,0,33.9L235.35,441a23.9,23.9,0,0,1-33.9,0L7.05,246.6a23.9,23.9,0,0,1,0-33.9l22.2-22.2a24,24,0,0,1,34.3.4l114.8,120.5V24a23.94,23.94,0,0,1,24-24h32a23.94,23.94,0,0,1,24,24V311.4l114.8-120.5a23.85,23.85,0,0,1,34.3-.4Z"/></g></g></svg>