<svg xmlns="http://www.w3.org/2000/svg" xmlns:xlink="http://www.w3.org/1999/xlink" viewBox="0 0 132.12 114.42"><defs><style>.cls-1,.cls-2{fill:none;}.cls-2{stroke:#000;stroke-linecap:round;stroke-linejoin:round;stroke-width:2px;}.cls-3{fill:url(#zig-zag);}</style><pattern id="zig-zag" data-name="zig-zag" width="313.94" height="90.01" patternTransform="translate(682.9 355.31)" patternUnits="userSpaceOnUse" viewBox="0 0 313.94 90.01"><rect class="cls-1" width="313.94" height="90.01"/><path class="cls-2" d="M1,83.41s2.5-1.43,5.2-3"/><path class="cls-2" d="M11.27,80.63a39.78,39.78,0,0,0-1.91,4.88c.09.16,15.46-9.1,15.53-9s-3.69,8.68-3.53,9c.08.13,15.46-9.11,15.54-9s-3.67,8.73-3.54,9,15.45-9.12,15.54-9-3.67,8.74-3.54,9,15.45-9.13,15.54-9-3.69,8.7-3.53,9,15.43-9.14,15.53-9-3.68,8.71-3.53,9,15.46-9.1,15.53-9c.17.29-3.66,8.75-3.53,9s15.45-9.12,15.54-9-3.7,8.68-3.54,9,15.45-9.13,15.54-9-3.69,8.7-3.54,9,15.44-9.14,15.54-9-3.69,8.7-3.53,9,15.45-9.11,15.53-9-3.65,8.75-3.53,9,15.45-9.13,15.54-9-3.7,8.68-3.54,9c.08.14,15.45-9.12,15.54-9s-3.7,8.68-3.54,9,15.45-9.12,15.54-9-3.7,8.69-3.54,9,15.45-9.12,15.54-9-3.68,8.71-3.53,9,15.46-9.1,15.53-9-3.69,8.7-3.53,9,15.43-9.15,15.54-9-3.69,8.72-3.54,9,15.44-9.14,15.54-9-3.7,8.69-3.54,9,15.45-9.13,15.54-9-3.68,8.72-3.54,9,15.45-9.13,15.54-9-3.67,8.73-3.53,9,15.44-9.13,15.53-9-3.68,8.71-3.53,9,15.44-9.13,15.54-9-3.69,8.71-3.54,9,15.45-9.12,15.54-9-3.67,8.74-3.54,9,15.44-9.14,15.54-9-3.69,8.71-3.54,9,15.44-9.14,15.54-9-3.67,8.73-3.53,9c0,.07,2.31-1.25,5.11-2.9"/><path class="cls-2" d="M307.74,79.5c2.85-1.68,5.17-3,5.2-3"/><path class="cls-2" d="M1,65.4s2.5-1.42,5.2-3"/><path class="cls-2" d="M11.27,62.63a39.78,39.78,0,0,0-1.91,4.88c.09.16,15.46-9.1,15.53-9s-3.69,8.68-3.53,9c.08.13,15.46-9.11,15.54-9s-3.67,8.73-3.54,9,15.45-9.11,15.54-9-3.67,8.74-3.54,9,15.45-9.12,15.54-9-3.69,8.7-3.53,9,15.43-9.14,15.53-9-3.68,8.71-3.53,9,15.46-9.11,15.53-9-3.66,8.74-3.53,9,15.45-9.12,15.54-9-3.7,8.68-3.54,9,15.45-9.13,15.54-9-3.69,8.7-3.54,9,15.44-9.14,15.54-9-3.69,8.69-3.53,9,15.45-9.12,15.53-9-3.65,8.75-3.53,9,15.45-9.12,15.54-9-3.7,8.69-3.54,9,15.45-9.12,15.54-9-3.7,8.68-3.54,9,15.45-9.12,15.54-9-3.7,8.69-3.54,9,15.45-9.12,15.54-9-3.68,8.71-3.53,9,15.46-9.11,15.53-9-3.69,8.7-3.53,9,15.43-9.15,15.54-9-3.69,8.71-3.54,9,15.44-9.15,15.54-9-3.7,8.69-3.54,9,15.45-9.13,15.54-9-3.68,8.72-3.54,9,15.45-9.13,15.54-9-3.67,8.73-3.53,9,15.44-9.12,15.53-9-3.68,8.71-3.53,9,15.44-9.13,15.54-9-3.69,8.71-3.54,9,15.45-9.12,15.54-9-3.67,8.73-3.54,9,15.44-9.15,15.54-9-3.69,8.71-3.54,9,15.44-9.14,15.54-9-3.67,8.73-3.53,9c0,.07,2.31-1.26,5.11-2.9"/><path class="cls-2" d="M307.74,61.5c2.85-1.68,5.17-3,5.2-3"/><path class="cls-2" d="M1,47.4s2.5-1.42,5.2-3"/><path class="cls-2" d="M11.27,44.63A40.64,40.64,0,0,0,9.36,49.5c.09.17,15.46-9.1,15.53-9s-3.69,8.69-3.53,9,15.46-9.1,15.54-9-3.67,8.74-3.54,9,15.45-9.12,15.54-9-3.67,8.74-3.54,9,15.45-9.12,15.54-9-3.69,8.7-3.53,9,15.43-9.14,15.53-9-3.68,8.71-3.53,9,15.46-9.11,15.53-9-3.66,8.74-3.53,9,15.45-9.12,15.54-9-3.7,8.68-3.54,9,15.45-9.13,15.54-9-3.69,8.7-3.54,9,15.44-9.14,15.54-9-3.69,8.7-3.53,9,15.45-9.11,15.53-9-3.65,8.76-3.53,9,15.45-9.12,15.54-9-3.7,8.69-3.54,9,15.45-9.12,15.54-9-3.7,8.68-3.54,9,15.45-9.12,15.54-9-3.7,8.68-3.54,9,15.45-9.12,15.54-9-3.68,8.71-3.53,9,15.46-9.11,15.53-9-3.69,8.69-3.53,9c.08.13,15.43-9.15,15.54-9s-3.69,8.71-3.54,9,15.44-9.15,15.54-9-3.7,8.68-3.54,9,15.45-9.12,15.54-9-3.68,8.73-3.54,9,15.45-9.12,15.54-9-3.67,8.73-3.53,9,15.44-9.12,15.53-9-3.68,8.71-3.53,9,15.44-9.14,15.54-9-3.69,8.7-3.54,9,15.45-9.13,15.54-9-3.67,8.73-3.54,9,15.44-9.15,15.54-9-3.69,8.7-3.54,9,15.44-9.14,15.54-9-3.67,8.73-3.53,9c0,.06,2.31-1.26,5.11-2.9"/><path class="cls-2" d="M307.74,43.49c2.85-1.68,5.17-3,5.2-3"/><path class="cls-2" d="M1,29.4s2.5-1.42,5.2-3"/><path class="cls-2" d="M11.27,26.63A40,40,0,0,0,9.36,31.5c.09.17,15.46-9.1,15.53-9s-3.69,8.69-3.53,9c.08.13,15.46-9.1,15.54-9s-3.67,8.73-3.54,9,15.45-9.12,15.54-9-3.67,8.74-3.54,9,15.45-9.13,15.54-9-3.69,8.69-3.53,9,15.43-9.15,15.53-9-3.68,8.71-3.53,9,15.46-9.11,15.53-9-3.66,8.74-3.53,9,15.45-9.12,15.54-9-3.7,8.68-3.54,9,15.45-9.12,15.54-9-3.69,8.71-3.54,9,15.44-9.14,15.54-9-3.69,8.7-3.53,9,15.45-9.11,15.53-9-3.65,8.76-3.53,9,15.45-9.13,15.54-9-3.7,8.69-3.54,9,15.45-9.12,15.54-9-3.7,8.68-3.54,9,15.45-9.13,15.54-9-3.7,8.68-3.54,9,15.45-9.13,15.54-9-3.68,8.7-3.53,9,15.46-9.11,15.53-9-3.69,8.69-3.53,9,15.43-9.14,15.54-9-3.69,8.72-3.54,9,15.44-9.14,15.54-9-3.7,8.69-3.54,9,15.45-9.13,15.54-9-3.68,8.73-3.54,9,15.45-9.13,15.54-9-3.67,8.73-3.53,9,15.44-9.13,15.53-9-3.68,8.71-3.53,9,15.44-9.14,15.54-9-3.69,8.7-3.54,9,15.45-9.13,15.54-9-3.67,8.73-3.54,9,15.44-9.15,15.54-9-3.69,8.7-3.54,9,15.44-9.15,15.54-9-3.67,8.73-3.53,9c0,.07,2.31-1.25,5.11-2.9"/><path class="cls-2" d="M307.74,25.49c2.85-1.68,5.17-3,5.2-3"/><path class="cls-2" d="M1,11.4S3.5,10,6.2,8.4"/><path class="cls-2" d="M11.27,8.63A40,40,0,0,0,9.36,13.5c.09.17,15.46-9.1,15.53-9s-3.69,8.68-3.53,9c.08.13,15.46-9.11,15.54-9s-3.67,8.73-3.54,9,15.45-9.12,15.54-9-3.67,8.74-3.54,9,15.45-9.13,15.54-9-3.69,8.69-3.53,9,15.43-9.15,15.53-9-3.68,8.71-3.53,9,15.46-9.1,15.53-9c.17.29-3.66,8.75-3.53,9s15.45-9.12,15.54-9-3.7,8.68-3.54,9,15.45-9.13,15.54-9-3.69,8.71-3.54,9,15.44-9.14,15.54-9-3.69,8.7-3.53,9,15.45-9.11,15.53-9-3.65,8.76-3.53,9,15.45-9.13,15.54-9-3.7,8.69-3.54,9,15.45-9.12,15.54-9-3.7,8.68-3.54,9c.08.14,15.45-9.13,15.54-9s-3.7,8.68-3.54,9,15.45-9.12,15.54-9-3.68,8.71-3.53,9,15.46-9.1,15.53-9-3.69,8.7-3.53,9,15.43-9.14,15.54-9-3.69,8.72-3.54,9,15.44-9.14,15.54-9-3.7,8.69-3.54,9,15.45-9.13,15.54-9-3.68,8.72-3.54,9,15.45-9.13,15.54-9-3.67,8.73-3.53,9,15.44-9.13,15.53-9-3.68,8.71-3.53,9,15.44-9.14,15.54-9-3.69,8.7-3.54,9,15.45-9.13,15.54-9-3.67,8.73-3.54,9,15.44-9.14,15.54-9-3.69,8.71-3.54,9,15.44-9.14,15.54-9-3.67,8.73-3.53,9c0,.07,2.31-1.25,5.11-2.9"/><path class="cls-2" d="M307.74,7.49c2.85-1.68,5.17-3,5.2-3"/></pattern></defs><title>Asset 7</title><g id="Layer_2" data-name="Layer 2"><g id="Layer_2-2" data-name="Layer 2"><polygon class="cls-3" points="66.06 0 0 114.42 132.12 114.42 66.06 0"/></g></g></svg>