<svg xmlns="http://www.w3.org/2000/svg" viewBox="0 0 1973.14 1973.14"><defs><style>.cls-1{fill:#fff;}</style></defs><title>Asset 11</title><g id="Layer_2" data-name="Layer 2"><g id="Layer_8" data-name="Layer 8"><polygon class="cls-1" points="1697.05 1973.14 1678.77 1935.19 1641.53 1917.75 1624.08 1880.5 1586.84 1863.06 1569.39 1825.81 1532.15 1808.37 1514.71 1771.13 1477.46 1753.68 1460.02 1716.43 1422.77 1698.99 1405.33 1661.74 1368.08 1644.3 1350.63 1607.05 1313.39 1589.61 1295.94 1552.36 1258.7 1534.92 1241.25 1497.67 1204.01 1480.22 1186.56 1442.98 1149.31 1425.53 1131.87 1388.29 1094.62 1370.84 1077.18 1333.6 1039.93 1316.15 1022.48 1278.9 985.24 1261.46 967.79 1224.21 930.54 1206.76 913.1 1169.52 875.85 1152.07 858.4 1114.82 821.16 1097.38 803.71 1060.13 766.47 1042.69 749.02 1005.44 711.78 988 694.33 950.75 657.09 933.31 639.64 896.06 602.4 878.62 584.95 841.37 547.7 823.92 530.26 786.68 493.01 769.23 475.56 731.98 438.32 714.54 420.87 677.29 383.62 659.84 366.17 622.59 328.92 605.14 311.47 567.89 274.22 550.44 256.77 513.19 219.53 495.75 202.08 458.5 164.83 441.05 147.38 403.8 110.13 386.35 92.67 349.09 55.42 331.64 37.96 294.38 0 276.1 14.9 272.63 9.29 258.44 23.49 264.05 17.88 249.85 32.08 255.46 26.47 241.26 40.66 246.87 35.06 232.68 49.25 238.28 43.65 224.09 57.84 229.69 52.23 215.5 66.43 221.1 60.82 206.91 75.02 212.51 69.41 198.32 83.6 203.93 77.99 189.74 92.18 195.35 86.57 181.16 100.76 186.77 95.16 172.58 109.35 178.18 103.75 163.99 117.94 169.6 112.33 155.41 126.52 161.01 120.92 146.82 135.11 152.42 129.5 138.23 143.7 143.84 138.09 129.64 152.29 135.25 146.68 121.05 160.88 126.66 155.27 112.46 169.47 118.06 163.86 103.87 178.06 109.47 172.46 95.28 186.65 100.88 181.05 86.69 195.25 92.29 189.64 78.09 203.84 83.69 198.24 69.5 212.43 75.1 206.83 60.9 221.02 66.51 215.42 52.31 229.62 57.92 224.01 43.72 238.21 49.32 232.61 35.12 246.81 40.72 241.21 26.52 255.41 32.12 249.81 17.93 264.01 23.52 258.41 9.32 272.62 14.92 276.09 0 294.37 37.95 331.61 55.4 349.06 92.64 386.3 110.08 403.75 147.33 440.99 164.78 458.43 202.02 495.68 219.47 513.12 256.71 550.37 274.15 567.81 311.4 605.06 328.84 622.51 366.09 659.75 383.54 677.2 420.78 714.44 438.23 731.89 475.47 769.13 492.92 786.58 530.16 823.83 547.61 841.27 584.86 878.52 602.3 895.96 639.55 933.21 657 950.66 694.24 987.9 711.69 1005.35 748.93 1042.6 766.38 1060.04 803.63 1097.29 821.07 1114.74 858.32 1151.98 875.77 1169.43 913.02 1206.67 930.46 1224.12 967.7 1261.36 985.15 1278.81 1022.39 1316.05 1039.84 1333.5 1077.08 1370.74 1094.53 1388.19 1131.78 1425.44 1149.22 1442.88 1186.47 1480.13 1203.91 1497.58 1241.16 1534.82 1258.61 1552.27 1295.86 1589.52 1313.31 1606.97 1350.55 1644.22 1368 1661.67 1405.25 1698.92 1422.7 1716.37 1459.95 1753.61 1477.4 1771.06 1514.64 1808.31 1532.09 1825.76 1569.35 1863.01 1586.8 1880.46 1624.05 1917.72 1641.5 1935.17 1678.76 1973.14 1697.05 1958.24 1700.51 1963.85 1714.7 1949.65 1709.1 1955.26 1723.29 1941.06 1717.68 1946.67 1731.88 1932.47 1726.27 1938.08 1740.47 1923.89 1734.86 1929.49 1749.06 1915.3 1743.45 1920.9 1757.64 1906.71 1752.04 1912.32 1766.23 1898.12 1760.63 1903.73 1774.82 1889.54 1769.21 1895.14 1783.4 1880.96 1777.79 1886.57 1791.98 1872.38 1786.37 1877.98 1800.57 1863.79 1794.96 1869.39 1809.15 1855.2 1803.55 1860.81 1817.74 1846.62 1812.13 1852.22 1826.33 1838.03 1820.72 1843.63 1834.91 1829.44 1829.31 1835.05 1843.5 1820.85 1837.9 1826.46 1852.09 1812.26 1846.49 1817.87 1860.68 1803.67 1855.08 1809.28 1869.27 1795.08 1863.67 1800.68 1877.87 1786.49 1872.26 1792.09 1886.46 1777.89 1880.86 1783.5 1895.05 1769.3 1889.45 1774.9 1903.65 1760.7 1898.04 1766.31 1912.24 1752.12 1906.63 1757.72 1920.83 1743.52 1915.23 1749.12 1929.42 1734.93 1923.82 1740.53 1938.02 1726.33 1932.42 1731.93 1946.62 1717.73 1941.02 1723.33 1955.22 1709.13 1949.62 1714.73 1963.82 1700.25 1958.52 1697.05 1973.14"/></g></g></svg>