<svg xmlns="http://www.w3.org/2000/svg" viewBox="0 0 2069.89 1977.33"><defs><style>.cls-1{fill:#fff;}</style></defs><title>Asset 6</title><g id="Layer_2" data-name="Layer 2"><g id="Layer_2-2" data-name="Layer 2"><polygon class="cls-1" points="1797.72 1977.33 1792.35 1945.11 1760.89 1943.08 1756.74 1911.83 1725.29 1909.81 1721.14 1878.56 1689.68 1876.54 1685.52 1845.29 1654.06 1843.27 1649.91 1812.02 1618.45 1809.99 1614.3 1778.74 1582.84 1776.72 1578.69 1745.47 1547.23 1743.44 1543.08 1712.19 1511.62 1710.17 1507.47 1678.92 1476 1676.9 1471.85 1645.64 1440.39 1643.62 1436.24 1612.37 1404.78 1610.35 1400.63 1579.1 1369.17 1577.07 1365.02 1545.82 1333.55 1543.8 1329.4 1512.55 1297.94 1510.52 1293.79 1479.27 1262.33 1477.25 1258.17 1445.99 1226.71 1443.97 1222.56 1412.72 1191.1 1410.7 1186.94 1379.44 1155.48 1377.42 1151.33 1346.17 1119.87 1344.14 1115.72 1312.89 1084.26 1310.87 1080.1 1279.61 1048.64 1277.59 1044.49 1246.34 1013.02 1244.31 1008.87 1213.06 977.41 1211.04 973.25 1179.78 941.79 1177.76 937.64 1146.5 906.18 1144.48 902.02 1113.23 870.56 1111.2 866.41 1079.95 834.94 1077.92 830.79 1046.67 799.33 1044.64 795.17 1013.39 763.71 1011.36 759.56 980.12 728.1 978.09 723.95 946.84 692.49 944.82 688.34 913.57 656.88 911.55 652.72 880.29 621.26 878.27 617.11 847.02 585.65 845 581.5 813.75 550.03 811.72 545.88 780.47 514.42 778.44 510.26 747.19 478.8 745.16 474.65 713.91 443.18 711.88 439.03 680.63 407.57 678.6 403.41 647.35 371.94 645.32 367.79 614.07 336.32 612.04 332.17 580.78 300.7 578.76 296.55 547.5 265.08 545.47 260.92 514.22 229.46 512.19 225.3 480.94 193.84 478.91 189.69 447.65 158.22 445.62 154.06 414.37 122.59 412.34 118.44 381.08 86.97 379.05 82.81 347.8 51.34 345.77 47.18 314.5 15.71 312.47 12.58 282.34 0 278.91 17.2 289.79 5.18 273.36 22.39 284.25 10.36 267.82 27.57 278.7 15.54 262.27 32.75 273.16 20.73 256.73 37.93 267.61 25.91 251.18 43.11 262.06 31.09 245.63 48.3 256.51 36.27 240.09 53.48 250.97 41.46 234.54 58.66 245.42 46.64 229 63.84 239.88 51.82 223.45 69.03 234.33 57.01 217.9 74.21 228.78 62.19 212.35 79.39 223.23 67.37 206.81 84.58 217.69 72.55 201.26 89.76 212.14 77.74 195.71 94.94 206.59 82.92 190.16 100.12 201.05 88.1 184.62 105.3 195.51 93.27 179.09 110.47 189.97 98.45 173.55 115.65 184.43 103.62 168.01 120.83 178.89 108.8 162.46 126.01 173.34 113.99 156.91 131.19 167.79 119.17 151.37 136.37 162.25 124.35 145.82 141.55 156.71 129.53 140.28 146.73 151.16 134.71 134.74 151.92 145.61 139.9 129.18 157.1 140.06 145.08 123.64 162.28 134.52 150.26 118.09 167.47 128.97 155.45 112.54 172.65 123.42 160.63 106.99 177.84 117.87 165.82 101.44 183.02 112.32 171 95.89 188.21 106.77 176.19 90.34 193.4 101.22 181.38 84.79 198.59 95.67 186.57 79.24 203.77 90.11 191.75 73.68 208.96 84.56 196.94 68.13 214.15 79.01 202.13 62.58 219.34 73.45 207.32 57.02 224.53 67.9 212.51 51.47 229.72 62.35 217.69 45.92 234.9 56.8 222.88 40.37 240.09 51.24 228.07 34.81 245.28 45.69 233.26 29.26 250.47 40.13 238.46 23.7 255.67 34.57 243.65 18.14 260.86 29.02 248.84 12.58 266.06 23.45 254.04 7.02 271.26 17.89 272.17 0 277.54 32.22 309 34.24 313.15 65.49 344.6 67.51 348.75 98.76 380.21 100.78 384.37 132.04 415.83 134.06 419.98 165.31 451.44 167.33 455.59 198.58 487.05 200.61 491.2 231.86 522.66 233.88 526.81 265.13 558.27 267.15 562.42 298.4 593.89 300.43 598.04 331.68 629.5 333.7 633.65 364.95 665.11 366.98 669.26 398.23 700.72 400.25 704.88 431.5 736.34 433.53 740.49 464.78 771.95 466.81 776.1 498.06 807.56 500.08 811.72 531.33 843.18 533.36 847.33 564.61 878.79 566.63 882.95 597.88 914.41 599.91 918.56 631.16 950.02 633.18 954.17 664.44 985.63 666.46 989.79 697.71 1021.25 699.74 1025.4 730.99 1056.87 733.01 1061.02 764.27 1092.48 766.29 1096.64 797.54 1128.1 799.57 1132.25 830.82 1163.71 832.85 1167.87 864.1 1199.33 866.13 1203.48 897.38 1234.95 899.4 1239.1 930.66 1270.56 932.68 1274.72 963.94 1306.18 965.96 1310.33 997.21 1341.79 999.23 1345.94 1030.48 1377.4 1032.51 1381.55 1063.76 1413.01 1065.78 1417.17 1097.03 1448.63 1099.05 1452.78 1130.31 1484.24 1132.33 1488.39 1163.58 1519.86 1165.61 1524.01 1196.86 1555.47 1198.89 1559.63 1230.14 1591.09 1232.17 1595.24 1263.42 1626.71 1265.44 1630.86 1296.7 1662.32 1298.72 1666.48 1329.98 1697.95 1332.01 1702.1 1363.26 1733.57 1365.29 1737.72 1396.54 1769.19 1398.57 1773.34 1429.83 1804.81 1431.86 1808.97 1463.11 1840.43 1465.14 1844.59 1496.39 1876.05 1498.42 1880.2 1529.67 1911.67 1531.7 1915.83 1562.96 1947.3 1564.99 1951.45 1596.24 1982.92 1598.27 1987.08 1629.53 2018.55 1631.56 2022.71 1662.82 2054.18 1664.86 2057.31 1694.98 2069.89 1698.41 2052.68 1687.54 2064.71 1703.96 2047.5 1693.08 2059.53 1709.51 2042.32 1698.63 2054.35 1715.05 2037.14 1704.17 2049.16 1720.6 2031.96 1709.71 2043.98 1726.14 2026.78 1715.26 2038.8 1731.69 2021.59 1720.81 2033.62 1737.24 2016.41 1726.36 2028.43 1742.78 2011.23 1731.9 2023.25 1748.33 2006.05 1737.45 2018.07 1753.88 2000.86 1743 2012.88 1759.43 1995.68 1748.55 2007.7 1764.97 1990.5 1754.09 2002.52 1770.52 1985.32 1759.64 1997.34 1776.07 1980.13 1765.19 1992.15 1781.62 1974.95 1770.73 1986.97 1787.16 1969.77 1776.28 1981.79 1792.7 1964.59 1781.82 1976.62 1798.24 1959.42 1787.36 1971.44 1803.78 1954.24 1792.89 1966.27 1809.32 1949.06 1798.44 1961.09 1814.86 1943.88 1803.98 1955.9 1820.41 1938.7 1809.53 1950.72 1825.96 1933.52 1815.08 1945.54 1831.5 1928.34 1820.62 1940.36 1837.04 1923.16 1826.16 1935.18 1842.59 1917.97 1831.71 1929.99 1848.14 1912.79 1837.26 1924.81 1853.69 1907.61 1842.81 1919.63 1859.23 1902.42 1848.35 1914.44 1864.78 1897.24 1853.91 1909.26 1870.34 1892.05 1859.45 1904.07 1875.88 1886.87 1865 1898.89 1881.43 1881.68 1870.56 1893.7 1886.99 1876.49 1876.11 1888.51 1892.54 1871.3 1881.66 1883.32 1898.09 1866.12 1887.21 1878.14 1903.64 1860.93 1892.77 1872.95 1909.2 1855.74 1898.32 1867.76 1914.75 1850.55 1903.87 1862.57 1920.31 1845.36 1909.43 1857.38 1925.86 1840.17 1914.98 1852.19 1931.41 1834.99 1920.53 1847.01 1936.96 1829.8 1926.08 1841.82 1942.51 1824.61 1931.64 1836.63 1948.07 1819.42 1937.19 1831.43 1953.63 1814.22 1942.75 1826.24 1959.19 1809.03 1948.31 1821.05 1964.74 1803.83 1953.87 1815.85 1970.31 1798.06 1960.11 1797.72 1977.33"/></g></g></svg>