<svg xmlns="http://www.w3.org/2000/svg" viewBox="0 0 634.81 633.87"><defs><style>.cls-1{fill:#eef5da;}.cls-2{fill:#4f6367;}.cls-3{fill:#fe5f55;}.cls-4,.cls-5{fill:none;stroke:#fff;stroke-linecap:round;stroke-linejoin:round;stroke-width:2px;}.cls-5{stroke-dasharray:11.92 11.92;}</style></defs><title>Asset 5</title><g id="Layer_2" data-name="Layer 2"><g id="Layer_5" data-name="Layer 5"><rect width="154.68" height="154.68"/><rect class="cls-1" x="480.13" y="479.19" width="154.68" height="154.68"/><polygon class="cls-2" points="0 154.68 480.13 633.87 480.13 479.19 154.68 154.68 0 154.68"/><polygon class="cls-3" points="154.68 0 154.68 154.68 480.13 479.19 634.81 479.19 154.68 0"/><path class="cls-4" d="M137.51,27c-2.25,0-3.68-1.33-4.89-3"/><path class="cls-5" d="M124,17.18c-5,1.21-5.38,9.85-11.12,9.85-6.16,0-6.16-10-12.33-10S94.35,27,88.18,27,82,17,75.85,17,69.68,27,63.52,27,57.35,17,51.18,17,45,27,38.85,27,32.68,17,26.51,17a5.29,5.29,0,0,0-4.11,2"/><path class="cls-4" d="M19.06,24c-1.21,1.69-2.64,3-4.89,3"/><path class="cls-4" d="M137.51,48.91c-2.25,0-3.68-1.33-4.89-3"/><path class="cls-5" d="M124,39.05c-5,1.22-5.38,9.86-11.12,9.86-6.16,0-6.16-10-12.33-10s-6.16,10-12.33,10-6.17-10-12.33-10-6.17,10-12.33,10-6.17-10-12.34-10-6.16,10-12.33,10-6.17-10-12.34-10a5.26,5.26,0,0,0-4.11,2"/><path class="cls-4" d="M19.06,45.89c-1.21,1.69-2.64,3-4.89,3"/><path class="cls-4" d="M137.51,70.79c-2.25,0-3.68-1.34-4.89-3"/><path class="cls-5" d="M124,60.93c-5,1.22-5.38,9.86-11.12,9.86-6.16,0-6.16-10-12.33-10s-6.16,10-12.33,10-6.17-10-12.33-10-6.17,10-12.33,10-6.17-10-12.34-10-6.16,10-12.33,10-6.17-10-12.34-10a5.28,5.28,0,0,0-4.11,2"/><path class="cls-4" d="M19.06,67.76c-1.21,1.69-2.64,3-4.89,3"/><path class="cls-4" d="M137.51,91.42c-2.25,0-3.68-1.34-4.89-3"/><path class="cls-5" d="M124,81.56c-5,1.22-5.38,9.86-11.12,9.86-6.16,0-6.16-10-12.33-10s-6.16,10-12.33,10-6.17-10-12.33-10-6.17,10-12.33,10-6.17-10-12.34-10-6.16,10-12.33,10-6.17-10-12.34-10a5.28,5.28,0,0,0-4.11,2"/><path class="cls-4" d="M19.06,88.39c-1.21,1.7-2.64,3-4.89,3"/><path class="cls-4" d="M137.51,113.3c-2.25,0-3.68-1.34-4.89-3"/><path class="cls-5" d="M124,103.44c-5,1.21-5.38,9.86-11.12,9.86-6.16,0-6.16-10-12.33-10s-6.16,10-12.33,10-6.17-10-12.33-10-6.17,10-12.33,10-6.17-10-12.34-10-6.16,10-12.33,10-6.17-10-12.34-10a5.28,5.28,0,0,0-4.11,2"/><path class="cls-4" d="M19.06,110.27c-1.21,1.69-2.64,3-4.89,3"/><path class="cls-4" d="M137.51,135.17c-2.25,0-3.68-1.33-4.89-3"/><path class="cls-5" d="M124,125.31c-5,1.22-5.38,9.86-11.12,9.86-6.16,0-6.16-10-12.33-10s-6.16,10-12.33,10-6.17-10-12.33-10-6.17,10-12.33,10-6.17-10-12.34-10-6.16,10-12.33,10-6.17-10-12.34-10a5.26,5.26,0,0,0-4.11,2"/><path class="cls-4" d="M19.06,132.15c-1.21,1.69-2.64,3-4.89,3"/></g></g></svg>