<svg xmlns="http://www.w3.org/2000/svg" viewBox="0 0 634.81 633.87"><defs><style>.cls-1{fill:#eef5da;}.cls-2{fill:#4f6367;}.cls-3{fill:#b8d8d8;}.cls-4,.cls-5{fill:none;stroke:#000;stroke-linecap:round;stroke-linejoin:round;stroke-width:2px;}.cls-5{stroke-dasharray:11.92 11.92;}</style></defs><title>Asset 4</title><g id="Layer_2" data-name="Layer 2"><g id="Layer_5" data-name="Layer 5"><rect class="cls-1" x="480.13" width="154.68" height="154.68"/><polygon class="cls-2" points="634.81 154.68 154.68 633.87 154.68 479.19 480.13 154.68 634.81 154.68"/><polygon class="cls-3" points="480.13 0 480.13 154.68 154.68 479.19 0 479.19 480.13 0"/><path class="cls-4" d="M497.3,17c2.25,0,3.68,1.34,4.89,3"/><path class="cls-5" d="M510.85,26.89c5-1.21,5.38-9.86,11.12-9.86,6.16,0,6.16,10,12.33,10s6.16-10,12.33-10S552.8,27,559,27s6.17-10,12.33-10,6.17,10,12.34,10S589.79,17,596,17s6.17,10,12.34,10a5.28,5.28,0,0,0,4.11-2"/><path class="cls-4" d="M615.75,20.06c1.21-1.69,2.64-3,4.89-3"/><path class="cls-4" d="M497.3,38.91c2.25,0,3.68,1.34,4.89,3"/><path class="cls-5" d="M510.85,48.77c5-1.22,5.38-9.86,11.12-9.86,6.16,0,6.16,10,12.33,10s6.16-10,12.33-10,6.17,10,12.33,10,6.17-10,12.33-10,6.17,10,12.34,10,6.16-10,12.33-10,6.17,10,12.34,10a5.28,5.28,0,0,0,4.11-2"/><path class="cls-4" d="M615.75,41.94c1.21-1.7,2.64-3,4.89-3"/><path class="cls-4" d="M497.3,60.79c2.25,0,3.68,1.33,4.89,3"/><path class="cls-5" d="M510.85,70.65c5-1.22,5.38-9.86,11.12-9.86,6.16,0,6.16,10,12.33,10s6.16-10,12.33-10,6.17,10,12.33,10,6.17-10,12.33-10,6.17,10,12.34,10,6.16-10,12.33-10,6.17,10,12.34,10a5.26,5.26,0,0,0,4.11-2"/><path class="cls-4" d="M615.75,63.81c1.21-1.69,2.64-3,4.89-3"/><path class="cls-4" d="M497.3,81.42c2.25,0,3.68,1.33,4.89,3"/><path class="cls-5" d="M510.85,91.28c5-1.22,5.38-9.86,11.12-9.86,6.16,0,6.16,10,12.33,10s6.16-10,12.33-10,6.17,10,12.33,10,6.17-10,12.33-10,6.17,10,12.34,10,6.16-10,12.33-10,6.17,10,12.34,10a5.26,5.26,0,0,0,4.11-2"/><path class="cls-4" d="M615.75,84.45c1.21-1.7,2.64-3,4.89-3"/><path class="cls-4" d="M497.3,103.3c2.25,0,3.68,1.33,4.89,3"/><path class="cls-5" d="M510.85,113.15c5-1.21,5.38-9.85,11.12-9.85,6.16,0,6.16,10,12.33,10s6.16-10,12.33-10,6.17,10,12.33,10,6.17-10,12.33-10,6.17,10,12.34,10,6.16-10,12.33-10,6.17,10,12.34,10a5.29,5.29,0,0,0,4.11-2"/><path class="cls-4" d="M615.75,106.32c1.21-1.69,2.64-3,4.89-3"/><path class="cls-4" d="M497.3,125.17c2.25,0,3.68,1.34,4.89,3"/><path class="cls-5" d="M510.85,135c5-1.22,5.38-9.86,11.12-9.86,6.16,0,6.16,10,12.33,10s6.16-10,12.33-10,6.17,10,12.33,10,6.17-10,12.33-10,6.17,10,12.34,10,6.16-10,12.33-10,6.17,10,12.34,10a5.28,5.28,0,0,0,4.11-2"/><path class="cls-4" d="M615.75,128.2c1.21-1.69,2.64-3,4.89-3"/></g></g></svg>