<svg xmlns="http://www.w3.org/2000/svg" viewBox="0 0 2427.57 1329.64"><defs><style>.cls-1{fill:#fff;}</style></defs><title>Asset 3</title><g id="Layer_2" data-name="Layer 2"><g id="Layer_2-2" data-name="Layer 2"><polygon class="cls-1" points="2427.57 371.57 2377.93 370.94 2345.2 406.45 2296.94 405.11 2264.22 440.62 2215.94 439.28 2183.22 474.79 2134.95 473.45 2102.23 508.97 2053.95 507.63 2021.23 543.14 1972.96 541.8 1940.24 577.31 1891.97 575.97 1859.24 611.48 1810.97 610.14 1778.25 645.66 1729.98 644.32 1697.25 679.83 1648.98 678.49 1616.26 714 1567.98 712.66 1535.26 748.17 1486.99 746.83 1454.26 782.35 1405.99 781.01 1373.27 816.52 1324.99 815.18 1292.26 850.7 1243.99 849.36 1211.26 884.87 1162.99 883.53 1130.27 919.04 1081.99 917.71 1049.27 953.22 1000.99 951.88 968.27 987.39 920 986.05 887.28 1021.56 839.01 1020.22 806.28 1055.74 758.01 1054.4 725.28 1089.91 677.01 1088.57 644.28 1124.09 596.01 1122.75 563.28 1158.26 515 1156.92 482.27 1192.44 434 1191.1 401.27 1226.61 353 1225.27 320.27 1260.79 271.99 1259.45 239.26 1294.97 190.97 1293.63 156.77 1329.64 160.9 1309.74 139.81 1311.21 155.58 1297.13 134.49 1298.6 150.26 1284.51 129.17 1285.98 144.93 1271.9 123.84 1273.36 139.61 1259.28 118.52 1260.74 134.29 1246.66 113.2 1248.13 128.96 1234.04 107.87 1235.51 123.64 1221.43 102.55 1222.89 118.32 1208.81 97.23 1210.27 112.99 1196.19 91.9 1197.65 107.67 1183.57 86.58 1185.03 102.34 1170.95 81.25 1172.41 97.02 1158.34 75.94 1159.81 91.7 1145.72 70.61 1147.19 86.38 1133.11 65.29 1134.57 81.05 1120.49 59.97 1121.96 75.73 1107.87 54.64 1109.34 70.41 1095.26 49.32 1096.72 65.08 1082.63 43.99 1084.1 59.76 1070.01 38.67 1071.48 54.43 1057.39 33.34 1058.86 49.11 1044.77 28.02 1046.23 43.78 1032.14 22.69 1033.6 38.45 1019.52 17.37 1020.99 33.13 1006.9 12.04 1008.36 27.8 994.27 6.71 995.73 22.48 981.64 1.38 983.1 17.14 969.01 0 958.07 49.64 958.7 82.37 923.19 130.64 924.53 163.36 889.02 211.63 890.36 244.35 854.85 292.62 856.19 325.34 820.67 373.62 822.01 406.34 786.5 454.61 787.84 487.33 752.33 535.61 753.67 568.33 718.16 616.6 719.5 649.32 683.98 697.6 685.33 730.32 649.81 778.59 651.15 811.32 615.64 859.59 616.98 892.31 581.47 940.59 582.81 973.31 547.29 1021.58 548.63 1054.31 513.12 1102.58 514.46 1135.31 478.94 1183.58 480.28 1216.31 444.77 1264.58 446.11 1297.31 410.6 1345.58 411.94 1378.31 376.42 1426.58 377.76 1459.3 342.25 1507.57 343.59 1540.29 308.08 1588.57 309.42 1621.29 273.9 1669.57 275.24 1702.29 239.73 1750.57 241.07 1783.29 205.55 1831.57 206.89 1864.29 171.38 1912.57 172.72 1945.3 137.2 1993.58 138.54 2026.3 103.03 2074.58 104.37 2107.31 68.85 2155.59 70.19 2188.32 34.67 2236.6 36.01 2270.8 0 2266.67 19.9 2287.76 18.43 2271.99 32.51 2293.08 31.05 2277.32 45.13 2298.4 43.66 2282.64 57.74 2303.73 56.28 2287.96 70.36 2309.05 68.9 2293.28 82.98 2314.37 81.51 2298.61 95.6 2319.7 94.13 2303.93 108.21 2325.02 106.75 2309.26 120.83 2330.34 119.37 2314.58 133.45 2335.67 131.99 2319.9 146.07 2340.99 144.61 2325.23 158.69 2346.32 157.22 2330.55 171.3 2351.64 169.84 2335.87 183.92 2356.96 182.45 2341.19 196.53 2362.28 195.07 2346.52 209.15 2367.61 207.68 2351.84 221.77 2372.93 220.3 2357.16 234.38 2378.25 232.92 2362.49 247 2383.58 245.54 2367.81 259.63 2388.9 258.16 2373.14 272.25 2394.23 270.79 2378.47 284.87 2399.56 283.41 2383.79 297.5 2404.88 296.04 2389.12 310.12 2410.21 308.65 2394.44 322.74 2415.53 321.28 2399.77 335.37 2420.86 333.91 2405.1 348 2426.19 346.54 2410.7 361.23 2427.57 371.57"/></g></g></svg>