<svg xmlns="http://www.w3.org/2000/svg" viewBox="0 0 448 448"><defs><style>.cls-1{fill:#fff;}</style></defs><title>Asset 2</title><g id="Layer_2" data-name="Layer 2"><g id="Layer_1-2" data-name="Layer 1"><path class="cls-1" d="M416,0H31.9A32.14,32.14,0,0,0,0,32.3V415.7A32.14,32.14,0,0,0,31.9,448H416a32.22,32.22,0,0,0,32-32.3V32.3A32.22,32.22,0,0,0,416,0ZM135.4,384H69V170.2h66.5V384ZM102.2,141a38.5,38.5,0,1,1,38.5-38.5A38.52,38.52,0,0,1,102.2,141ZM384.3,384H317.9V280c0-24.8-.5-56.7-34.5-56.7-34.6,0-39.9,27-39.9,54.9V384H177.1V170.2h63.7v29.2h.9c8.9-16.8,30.6-34.5,62.9-34.5,67.2,0,79.7,44.3,79.7,101.9Z"/></g></g></svg>