<svg xmlns="http://www.w3.org/2000/svg" viewBox="0 0 512 512"><defs><style>.cls-1{fill:#fff;}</style></defs><title>Asset 1</title><g id="Layer_2" data-name="Layer 2"><g id="Layer_1-2" data-name="Layer 1"><path class="cls-1" d="M326.61,185.39A151.92,151.92,0,0,1,327,400l-.36.37-67.2,67.2c-59.27,59.27-155.7,59.26-215,0s-59.27-155.7,0-215l37.11-37.1c9.84-9.84,26.78-3.3,27.29,10.6a184.45,184.45,0,0,0,9.69,52.72,16.08,16.08,0,0,1-3.78,16.61l-13.09,13.09c-28,28-28.9,73.66-1.15,102a72.07,72.07,0,0,0,102.32.51L270,343.79A72,72,0,0,0,270,242a75.64,75.64,0,0,0-10.34-8.57,16,16,0,0,1-6.95-12.6A39.86,39.86,0,0,1,264.45,191l21.06-21a16.06,16.06,0,0,1,20.58-1.74,152.65,152.65,0,0,1,20.52,17.2ZM467.55,44.45c-59.26-59.26-155.69-59.27-215,0l-67.2,67.2L185,112a152.05,152.05,0,0,0,20.88,231.79,16.07,16.07,0,0,0,20.58-1.74L247.55,321a39.81,39.81,0,0,0,11.69-29.81,16,16,0,0,0-6.94-12.6A75.64,75.64,0,0,1,242,270a72,72,0,0,1,0-101.83L309.16,101a72.07,72.07,0,0,1,102.32.51c27.75,28.3,26.87,73.93-1.15,102l-13.09,13.09a16.08,16.08,0,0,0-3.78,16.61,184.45,184.45,0,0,1,9.69,52.72c.51,13.9,17.45,20.44,27.29,10.6l37.11-37.1c59.27-59.26,59.27-155.7,0-215Z"/></g></g></svg>