<svg xmlns="http://www.w3.org/2000/svg" viewBox="0 0 218.75 408.59"><defs><style>.cls-1{fill:#444554;}.cls-2{fill:#5a5b69;}.cls-3,.cls-4{fill:none;stroke:#fff;stroke-linecap:round;stroke-linejoin:round;stroke-width:2px;}.cls-4{stroke-dasharray:11.92 11.92;}</style></defs><title>Asset 16</title><g id="Layer_2" data-name="Layer 2"><g id="Layer_6" data-name="Layer 6"><polygon class="cls-1" points="113.15 408.59 0.8 296.24 0.8 109.38 109.38 109.38 113.15 408.59"/><polygon class="cls-2" points="218.75 109.38 218.75 302.98 113.15 408.59 109.38 109.38 218.75 109.38"/><rect x="32.04" y="32.04" width="154.68" height="154.68" transform="translate(-45.3 109.38) rotate(-45)"/><path class="cls-3" d="M116.35,31.26c-1.59,1.59-3.55,1.66-5.6,1.31"/><path class="cls-4" d="M99.8,33.87c-2.66,4.38,3.16,10.78-.89,14.83C94.55,53.06,87.48,46,83.12,50.35s2.71,11.43-1.65,15.79S70,63.42,65.68,67.78,68.39,79.21,64,83.57s-11.43-2.7-15.79,1.66S51,96.66,46.59,101s-11.44-2.71-15.8,1.65A5.31,5.31,0,0,0,29.32,107"/><path class="cls-3" d="M30.45,112.87c.35,2.06.28,4-1.32,5.6"/><path class="cls-3" d="M131.82,46.73c-1.59,1.59-3.55,1.66-5.6,1.31"/><path class="cls-4" d="M115.27,49.34c-2.66,4.38,3.16,10.78-.89,14.83C110,68.53,103,61.46,98.59,65.82s2.71,11.43-1.65,15.78-11.43-2.71-15.79,1.65S83.86,94.68,79.5,99s-11.43-2.71-15.79,1.66,2.71,11.43-1.65,15.79-11.44-2.71-15.8,1.65a5.28,5.28,0,0,0-1.47,4.35"/><path class="cls-3" d="M45.92,128.34c.35,2,.28,4-1.32,5.6"/><path class="cls-3" d="M147.29,62.2c-1.59,1.59-3.55,1.66-5.6,1.31"/><path class="cls-4" d="M130.74,64.81c-2.66,4.38,3.16,10.77-.89,14.83-4.36,4.36-11.43-2.71-15.79,1.64s2.71,11.43-1.65,15.79S101,94.36,96.62,98.72s2.71,11.43-1.65,15.79-11.43-2.71-15.79,1.66S81.89,127.6,77.53,132s-11.44-2.71-15.8,1.65A5.28,5.28,0,0,0,60.26,138"/><path class="cls-3" d="M61.39,143.81c.35,2.05.28,4-1.32,5.6"/><path class="cls-3" d="M161.88,76.78c-1.6,1.6-3.55,1.67-5.6,1.32"/><path class="cls-4" d="M145.33,79.39c-2.67,4.39,3.16,10.78-.89,14.84-4.36,4.35-11.43-2.72-15.79,1.64s2.71,11.43-1.65,15.79-11.43-2.71-15.79,1.65,2.71,11.43-1.65,15.79-11.43-2.71-15.79,1.65,2.71,11.44-1.65,15.8-11.44-2.71-15.8,1.65a5.28,5.28,0,0,0-1.47,4.35"/><path class="cls-3" d="M76,158.4c.34,2,.28,4-1.32,5.6"/><path class="cls-3" d="M177.35,92.25c-1.6,1.6-3.55,1.66-5.6,1.32"/><path class="cls-4" d="M160.79,94.86c-2.66,4.39,3.17,10.78-.88,14.83-4.36,4.36-11.44-2.71-15.79,1.65s2.71,11.43-1.65,15.79-11.43-2.71-15.79,1.65,2.71,11.43-1.65,15.79-11.43-2.71-15.8,1.65S112,157.65,107.58,162s-11.43-2.7-15.79,1.66A5.28,5.28,0,0,0,90.32,168"/><path class="cls-3" d="M91.45,173.87c.34,2,.27,4-1.32,5.6"/><path class="cls-3" d="M192.81,107.72c-1.59,1.6-3.54,1.66-5.59,1.32"/><path class="cls-4" d="M176.26,110.33c-2.66,4.39,3.17,10.78-.89,14.83-4.35,4.36-11.43-2.71-15.78,1.65s2.71,11.43-1.65,15.79-11.43-2.71-15.79,1.65,2.71,11.43-1.65,15.79-11.43-2.71-15.8,1.65,2.71,11.43-1.65,15.79-11.43-2.7-15.79,1.66a5.28,5.28,0,0,0-1.47,4.35"/><path class="cls-3" d="M106.92,189.34c.34,2,.27,4-1.32,5.6"/></g></g></svg>