<?xml version="1.0" encoding="utf-8"?>
<!-- Generator: Adobe Illustrator 23.0.6, SVG Export Plug-In . SVG Version: 6.00 Build 0)  -->
<svg version="1.1" id="Layer_1" xmlns="http://www.w3.org/2000/svg" xmlns:xlink="http://www.w3.org/1999/xlink" x="0px" y="0px"
	 viewBox="0 0 384 512" style="enable-background:new 0 0 384 512;" xml:space="preserve">
<style type="text/css">
	.st0{fill:#FFFFFF;}
</style>
<path class="st0" d="M376.6,427.5c11.3,13.6,9.5,33.8-4.1,45.1c-6,5-13.2,7.4-20.5,7.4c-9.2,0-18.3-3.9-24.6-11.5L192,305.1
	L56.6,467.6c-6.3,7.6-15.4,11.5-24.6,11.5c-7.2,0-14.5-2.4-20.5-7.4C-2,460.4-3.9,440.2,7.4,426.6l142.9-171.5L7.4,84.5
	c-11.3-13.6-9.5-33.8,4.1-45.1c13.6-11.3,33.7-9.5,45.1,4.1L192,206L327.4,43.5c11.3-13.6,31.5-15.4,45.1-4.1
	c13.6,11.3,15.4,31.5,4.1,45.1L233.7,256L376.6,427.5z"/>
</svg>
