<svg xmlns="http://www.w3.org/2000/svg" viewBox="0 0 218.75 267.97"><defs><style>.cls-1{fill:#e5dfc3;}.cls-2,.cls-3{fill:none;stroke:#fff;stroke-linecap:round;stroke-linejoin:round;stroke-width:2px;}.cls-3{stroke-dasharray:11.92 11.92;}</style></defs><title>Asset 38</title><g id="Layer_2" data-name="Layer 2"><g id="Layer_6" data-name="Layer 6"><polygon class="cls-1" points="218.75 158.6 218.75 0 0.8 0 0 158.6 218.75 158.6"/><rect x="32.04" y="81.26" width="154.68" height="154.68" transform="translate(-80.11 123.79) rotate(-45)"/><path class="cls-2" d="M116.35,80.48c-1.59,1.59-3.55,1.66-5.6,1.32"/><path class="cls-3" d="M99.8,83.09c-2.66,4.38,3.16,10.78-.89,14.83-4.36,4.36-11.43-2.71-15.79,1.65s2.71,11.43-1.65,15.79S70,112.65,65.68,117,68.39,128.44,64,132.8s-11.43-2.71-15.79,1.65,2.71,11.43-1.65,15.79-11.44-2.71-15.8,1.66a5.3,5.3,0,0,0-1.47,4.35"/><path class="cls-2" d="M30.45,162.1c.35,2.05.28,4-1.32,5.6"/><path class="cls-2" d="M131.82,96c-1.59,1.59-3.55,1.66-5.6,1.32"/><path class="cls-3" d="M115.27,98.56c-2.66,4.38,3.16,10.78-.89,14.83C110,117.75,103,110.68,98.59,115s2.71,11.43-1.65,15.79-11.43-2.71-15.79,1.64,2.71,11.44-1.65,15.8-11.43-2.71-15.79,1.65,2.71,11.43-1.65,15.79-11.44-2.71-15.8,1.66a5.27,5.27,0,0,0-1.47,4.35"/><path class="cls-2" d="M45.92,177.57c.35,2.05.28,4-1.32,5.6"/><path class="cls-2" d="M147.29,111.42c-1.59,1.59-3.55,1.66-5.6,1.32"/><path class="cls-3" d="M130.74,114c-2.66,4.38,3.16,10.78-.89,14.83-4.36,4.36-11.43-2.71-15.79,1.65s2.71,11.43-1.65,15.79-11.43-2.72-15.79,1.64,2.71,11.44-1.65,15.8S83.54,161,79.18,165.39s2.71,11.43-1.65,15.79-11.44-2.71-15.8,1.66a5.27,5.27,0,0,0-1.47,4.35"/><path class="cls-2" d="M61.39,193c.35,2.05.28,4-1.32,5.59"/><path class="cls-2" d="M161.88,126c-1.6,1.59-3.55,1.66-5.6,1.31"/><path class="cls-3" d="M145.33,128.62c-2.67,4.38,3.16,10.78-.89,14.83-4.36,4.36-11.43-2.71-15.79,1.65s2.71,11.43-1.65,15.78-11.43-2.71-15.79,1.65,2.71,11.43-1.65,15.79S98.13,175.61,93.77,180s2.71,11.43-1.65,15.79-11.44-2.71-15.8,1.65a5.28,5.28,0,0,0-1.47,4.35"/><path class="cls-2" d="M76,207.62c.34,2,.28,4-1.32,5.6"/><path class="cls-2" d="M177.35,141.48c-1.6,1.59-3.55,1.66-5.6,1.31"/><path class="cls-3" d="M160.79,144.09c-2.66,4.38,3.17,10.77-.88,14.83-4.36,4.36-11.44-2.71-15.79,1.64s2.71,11.43-1.65,15.79S131,173.64,126.68,178s2.71,11.43-1.65,15.79-11.43-2.71-15.8,1.66,2.72,11.43-1.65,15.79-11.43-2.71-15.79,1.65a5.28,5.28,0,0,0-1.47,4.35"/><path class="cls-2" d="M91.45,223.09c.34,2,.27,4-1.32,5.6"/><path class="cls-2" d="M192.81,157c-1.59,1.59-3.54,1.66-5.59,1.31"/><path class="cls-3" d="M176.26,159.56c-2.66,4.38,3.17,10.77-.89,14.83-4.35,4.36-11.43-2.72-15.78,1.64s2.71,11.43-1.65,15.79-11.43-2.71-15.79,1.65,2.71,11.43-1.65,15.79-11.43-2.71-15.8,1.66,2.71,11.43-1.65,15.79-11.43-2.71-15.79,1.65a5.28,5.28,0,0,0-1.47,4.35"/><path class="cls-2" d="M106.92,238.56c.34,2.05.27,4-1.32,5.6"/></g></g></svg>